<?xml version="1.0" encoding="UTF-8" standalone="no"?>
<!-- Created with Inkscape (http://www.inkscape.org/) -->

<svg
   xmlns:dc="http://purl.org/dc/elements/1.1/"
   xmlns:cc="http://creativecommons.org/ns#"
   xmlns:rdf="http://www.w3.org/1999/02/22-rdf-syntax-ns#"
   xmlns:svg="http://www.w3.org/2000/svg"
   xmlns="http://www.w3.org/2000/svg"
   xmlns:sodipodi="http://sodipodi.sourceforge.net/DTD/sodipodi-0.dtd"
   xmlns:inkscape="http://www.inkscape.org/namespaces/inkscape"
   width="210mm"
   height="297mm"
   viewBox="0 0 210 297"
   version="1.1"
   id="svg8"
   inkscape:version="0.92.3 (2405546, 2018-03-11)"
   sodipodi:docname="drawing.svg">
  <defs
     id="defs2" />
  <sodipodi:namedview
     id="base"
     pagecolor="#ffffff"
     bordercolor="#666666"
     borderopacity="1.0"
     inkscape:pageopacity="0.0"
     inkscape:pageshadow="2"
     inkscape:zoom="0.49497475"
     inkscape:cx="380.57472"
     inkscape:cy="782.42768"
     inkscape:document-units="mm"
     inkscape:current-layer="layer1"
     showgrid="false"
     showguides="true"
     inkscape:window-width="1366"
     inkscape:window-height="705"
     inkscape:window-x="-8"
     inkscape:window-y="-8"
     inkscape:window-maximized="1"
     inkscape:guide-bbox="true">
    <sodipodi:guide
       position="126.3514,232.9155"
       orientation="0,1"
       id="guide3776"
       inkscape:locked="false" />
    <sodipodi:guide
       position="126.35139,232.91551"
       orientation="1,0"
       id="guide3778"
       inkscape:locked="false" />
    <sodipodi:guide
       position="93.706699,233.25943"
       orientation="1,0"
       id="guide3780"
       inkscape:locked="false" />
  </sodipodi:namedview>
  <metadata
     id="metadata5">
    <rdf:RDF>
      <cc:Work
         rdf:about="">
        <dc:format>image/svg+xml</dc:format>
        <dc:type
           rdf:resource="http://purl.org/dc/dcmitype/StillImage" />
        <dc:title></dc:title>
      </cc:Work>
    </rdf:RDF>
  </metadata>
  <g
     inkscape:label="Layer 1"
     inkscape:groupmode="layer"
     id="layer1"
     style="display:inline">
    <g
       id="g3736"
       transform="matrix(7.0182044,0,0,7.0182044,-78.08678,-28.927039)"
       style="display:inline" />
    <g
       id="g3744"
       transform="matrix(7.0182044,0,0,7.0182044,-78.08678,-28.927039)"
       style="display:inline">
      <path
         inkscape:connector-curvature="0"
         d="m 37.131558,30.365263 c 0.0021,-0.327698 -0.0759,-0.594599 -0.164221,-0.839318 -0.144465,-0.319322 -0.3297,-0.579137 -0.57108,-0.789693 -0.800203,-1.188552 -1.182979,-2.366934 -1.168729,-3.601977 1.04e-4,-0.0084 -0.0041,-0.01563 -0.0046,-0.02398 l 0.02786,-3.663618 c 0.02148,-2.252426 -0.851029,-4.391034 -2.455595,-6.018247 -1.036634,-1.059312 -2.302206,-1.796976 -3.665495,-2.175533 l 3.82e-4,-0.06407 c 0.0057,-0.619138 -0.232126,-1.2051 -0.669123,-1.649121 -0.436996,-0.444022 -1.019315,-0.692342 -1.636999,-0.696381 -0.619051,-0.0046 -1.204377,0.232937 -1.648845,0.669758 -0.444022,0.436997 -0.691171,1.017681 -0.696381,1.636999 l -4.65e-4,0.05381 c -3.635827,1.022352 -6.172909,4.305107 -6.20085,8.089468 l -0.0355,3.699512 c -2.1e-5,0.0014 -8.23e-4,0.0026 -8.43e-4,0.004 -0.01556,1.210385 -0.420943,2.400486 -1.204156,3.537236 -0.520854,0.396225 -0.833284,1.012066 -0.838527,1.660768 -9e-6,0.0055 -3.6e-5,0.011 -4.5e-5,0.01648 1.96e-4,0.793697 0.713615,1.406556 1.507266,1.41507 l 17.938362,0.192517 c 0.811918,0.0087 1.477531,-0.641713 1.487589,-1.453608 z M 20.785834,21.195249 c -0.02233,-0.0046 -0.04396,-0.01098 -0.0644,-0.01903 -0.152641,-0.06014 -0.246336,-0.221956 -0.215558,-0.389313 0.07499,-0.400801 0.184997,-0.797251 0.328272,-1.179541 0.06818,-0.180964 0.269605,-0.272695 0.450581,-0.204543 0.0018,6.97e-4 0.0036,0.0014 0.0055,0.0022 0.177631,0.06998 0.266707,0.268815 0.199726,0.448156 -0.129108,0.343794 -0.228572,0.701363 -0.295692,1.062228 -0.03539,0.189679 -0.218081,0.315039 -0.408399,0.279932 z m 5.192722,-5.323544 c -0.553479,0.136712 -1.087365,0.346213 -1.586803,0.622823 -0.811534,0.450695 -1.52973,1.084059 -2.077312,1.831869 -0.0958,0.131249 -0.265942,0.17547 -0.410404,0.118554 -0.02726,-0.01074 -0.05391,-0.02435 -0.07875,-0.04257 -0.155739,-0.114884 -0.189971,-0.333047 -0.07535,-0.489418 0.606187,-0.828633 1.402457,-1.530958 2.3026,-2.030707 0.553318,-0.306811 1.144849,-0.538743 1.758914,-0.689366 0.186898,-0.04812 0.377275,0.06677 0.423409,0.256036 0.04641,0.187266 -0.06876,0.377007 -0.256303,0.422778 z"
         style="display:inline;fill:#303030"
         id="path3738" />
      <path
         inkscape:connector-curvature="0"
         d="m 29.129697,32.337499 -0.550437,-0.0045 -3.52631,-0.02891 -0.55042,-0.0046 c 0.05729,0.487017 0.265979,0.941285 0.620921,1.297905 0.22211,0.223638 0.482923,0.394049 0.767527,0.506179 0.252111,0.09933 0.522581,0.153086 0.801197,0.154774 l 0.216963,0.0021 c 0.592154,0.0048 1.15318,-0.221375 1.579018,-0.635263 0.360029,-0.350599 0.576136,-0.80174 0.641541,-1.287755 z"
         style="display:inline;fill:#303030;stroke-width:0.78604168"
         id="path3740" />
    </g>
  </g>
</svg>
